<svg width="89" height="84" viewBox="0 0 89 84" fill="none" xmlns="http://www.w3.org/2000/svg">
<rect x="0.863525" width="88.0293" height="84" rx="10" fill="#6C5DD3" fill-opacity="0.13"/>
<rect x="14.4871" y="13" width="60.7821" height="58" rx="10" fill="#7C6AF5"/>
<path fill-rule="evenodd" clip-rule="evenodd" d="M51.0081 53.6666H40.8018C37.0528 53.6666 34.1767 52.3745 34.9936 47.1739L35.9449 40.1258C36.4485 37.5309 38.1831 36.5377 39.7051 36.5377H52.1496C53.694 36.5377 55.3279 37.6056 55.9098 40.1258L56.8611 47.1739C57.5549 51.7871 54.7571 53.6666 51.0081 53.6666Z" stroke="white" stroke-width="1.5" stroke-linecap="round" stroke-linejoin="round"/>
<path d="M51.1759 36.2814C51.1759 33.4977 48.811 31.241 45.8937 31.241V31.241C44.4889 31.2353 43.1396 31.7639 42.1441 32.7097C41.1487 33.6556 40.5891 34.9409 40.5891 36.2814V36.2814" stroke="white" stroke-width="1.5" stroke-linecap="round" stroke-linejoin="round"/>
<path d="M49.5197 41.5354H49.4637" stroke="white" stroke-width="1.5" stroke-linecap="round" stroke-linejoin="round"/>
<path d="M42.391 41.5354H42.335" stroke="white" stroke-width="1.5" stroke-linecap="round" stroke-linejoin="round"/>
</svg>
