<svg width="89" height="84" viewBox="0 0 89 84" fill="none" xmlns="http://www.w3.org/2000/svg">
<rect x="0.463135" width="88.0293" height="84" rx="10" fill="#21B7E4" fill-opacity="0.13"/>
<rect x="14.0869" y="13" width="60.7821" height="58" rx="10" fill="#21B7E4"/>
<path fill-rule="evenodd" clip-rule="evenodd" d="M42.2668 27.4782C43.6649 26.8406 45.2903 26.8406 46.6883 27.4782C47.2958 27.7553 47.8522 28.2083 48.6229 28.8355C48.6629 28.8681 48.7036 28.9011 48.7448 28.9346C49.1189 29.2389 49.2368 29.3325 49.3561 29.4088C49.6595 29.6028 50.0001 29.7374 50.3584 29.8049C50.4992 29.8315 50.6519 29.8448 51.142 29.8821C51.1959 29.8863 51.2492 29.8903 51.3016 29.8942C52.3112 29.9707 53.0404 30.0259 53.6752 30.2399C55.1365 30.7323 56.2857 31.829 56.8018 33.2233C57.026 33.829 57.0838 34.5248 57.164 35.4883C57.1682 35.5384 57.1723 35.5891 57.1767 35.6406C57.2159 36.1083 57.2298 36.254 57.2577 36.3884C57.3282 36.7303 57.4694 37.0553 57.6727 37.3448C57.7527 37.4586 57.8508 37.571 58.1697 37.9282C58.2048 37.9675 58.2394 38.0062 58.2735 38.0444C58.9309 38.7797 59.4056 39.3108 59.6959 39.8904C60.3642 41.2245 60.3642 42.7755 59.6959 44.1096C59.4056 44.6892 58.9309 45.2202 58.2735 45.9556C58.2394 45.9937 58.2048 46.0324 58.1697 46.0719C57.8508 46.4289 57.7527 46.5414 57.6727 46.6552C57.4694 46.9447 57.3282 47.2698 57.2577 47.6116C57.2298 47.746 57.2159 47.8917 57.1767 48.3594C57.1723 48.4108 57.1682 48.4617 57.164 48.5116C57.0838 49.4751 57.026 50.1709 56.8018 50.7766C56.2857 52.171 55.1365 53.2677 53.6752 53.7601C53.0404 53.974 52.3112 54.0292 51.3016 54.1057C51.2492 54.1098 51.1959 54.1137 51.142 54.1179C50.6519 54.1552 50.4992 54.1686 50.3584 54.1951C50.0001 54.2625 49.6595 54.3972 49.3561 54.5911C49.2368 54.6675 49.1189 54.7611 48.7448 55.0654C48.7034 55.0989 48.6629 55.1319 48.6229 55.1644C47.8522 55.7917 47.2958 56.2447 46.6883 56.5218C45.2903 57.1594 43.6649 57.1594 42.2668 56.5218C41.6594 56.2447 41.1028 55.7917 40.3322 55.1644C40.2922 55.1319 40.2516 55.0989 40.2104 55.0654C39.8362 54.7611 39.7183 54.6675 39.599 54.5911C39.2957 54.3972 38.955 54.2625 38.5968 54.1951C38.4559 54.1686 38.3033 54.1552 37.8131 54.1179C37.7592 54.1137 37.706 54.1098 37.6536 54.1057C36.6438 54.0292 35.9146 53.974 35.2798 53.7601C33.8187 53.2677 32.6694 52.171 32.1533 50.7766C31.9291 50.1709 31.8712 49.4751 31.7911 48.5116C31.787 48.4617 31.7828 48.4108 31.7785 48.3594C31.7393 47.8917 31.7253 47.746 31.6975 47.6116C31.6268 47.2698 31.4857 46.9447 31.2824 46.6552C31.2024 46.5414 31.1044 46.4289 30.7855 46.0719C30.7503 46.0326 30.7157 45.9937 30.6816 45.9556C30.0243 45.2203 29.5496 44.6892 29.2592 44.1096C28.591 42.7755 28.591 41.2245 29.2592 39.8904C29.5496 39.3108 30.0243 38.7797 30.6816 38.0444C30.7157 38.0062 30.7503 37.9675 30.7855 37.9282C31.1044 37.571 31.2024 37.4586 31.2824 37.3448C31.4857 37.0553 31.6268 36.7303 31.6975 36.3884C31.7253 36.254 31.7393 36.1083 31.7785 35.6406C31.7828 35.5891 31.787 35.5384 31.7911 35.4883C31.8712 34.5248 31.9291 33.829 32.1533 33.2233C32.6694 31.829 33.8187 30.7323 35.2798 30.2399C35.9146 30.0259 36.6439 29.9707 37.6536 29.8942C37.706 29.8903 37.7592 29.8863 37.8131 29.8821C38.3033 29.8448 38.4559 29.8315 38.5968 29.8049C38.955 29.7374 39.2957 29.6028 39.599 29.4088C39.7183 29.3325 39.8362 29.2389 40.2104 28.9346C40.2516 28.9011 40.2922 28.8681 40.3322 28.8355C41.1028 28.2083 41.6594 27.7553 42.2668 27.4782ZM45.668 29.5154C44.9152 29.172 44.0399 29.172 43.2871 29.5154C42.9962 29.6481 42.6893 29.8853 41.7452 30.6531C41.7296 30.6657 41.7144 30.6781 41.6993 30.6904C41.3893 30.9424 41.1632 31.1265 40.9164 31.2843C40.3531 31.6446 39.7204 31.8946 39.0551 32.02C38.7636 32.0749 38.4673 32.0974 38.0614 32.1282C38.0417 32.1297 38.0216 32.1313 38.0013 32.1328C36.7648 32.227 36.3721 32.2663 36.0679 32.3688C35.2811 32.634 34.6623 33.2245 34.3844 33.9752C34.2769 34.2655 34.2358 34.6402 34.1371 35.8202C34.1354 35.8396 34.1339 35.8587 34.1323 35.8775C34.1 36.2648 34.0764 36.5476 34.0188 36.8257C33.8875 37.4606 33.6254 38.0643 33.2479 38.6018C33.0824 38.8373 32.8896 39.0531 32.6254 39.3489C32.6126 39.3633 32.5995 39.3778 32.5863 39.3927C31.7817 40.2936 31.5332 40.5864 31.3941 40.864C31.0342 41.5824 31.0342 42.4176 31.3941 43.1359C31.5332 43.4136 31.7817 43.7064 32.5863 44.6073C32.5996 44.6221 32.6126 44.6367 32.6255 44.6511C32.8896 44.9469 33.0824 45.1626 33.2479 45.3981C33.6254 45.9357 33.8875 46.5394 34.0188 47.1742C34.0764 47.4523 34.1 47.7351 34.1323 48.1224C34.1339 48.1413 34.1354 48.1605 34.1371 48.1798C34.2358 49.3597 34.2769 49.7344 34.3844 50.0247C34.6623 50.7754 35.2811 51.366 36.0679 51.6312C36.3721 51.7338 36.7648 51.7731 38.0013 51.8671L38.0614 51.8718C38.4673 51.9025 38.7636 51.925 39.0551 51.9799C39.7204 52.1053 40.3531 52.3554 40.9164 52.7157C41.1632 52.8735 41.3893 53.0575 41.6993 53.3095L41.7452 53.3469C42.6893 54.1147 42.9962 54.3519 43.2871 54.4846C44.0399 54.828 44.9152 54.828 45.668 54.4846C45.959 54.3519 46.2658 54.1147 47.2099 53.3469L47.256 53.3095C47.5658 53.0575 47.7919 52.8735 48.0387 52.7157C48.602 52.3554 49.2348 52.1053 49.9 51.9799C50.1914 51.925 50.4878 51.9025 50.8936 51.8718L50.9538 51.8671C52.1903 51.7731 52.583 51.7338 52.8872 51.6312C53.6739 51.366 54.2928 50.7754 54.5707 50.0247C54.6783 49.7344 54.7194 49.3597 54.818 48.1798L54.8229 48.1224C54.8551 47.7351 54.8787 47.4523 54.9362 47.1742C55.0676 46.5394 55.3297 45.9357 55.7073 45.3981C55.8726 45.1626 56.0655 44.9469 56.3296 44.6512L56.3687 44.6073C57.1734 43.7064 57.4219 43.4136 57.5611 43.1359C57.9209 42.4176 57.9209 41.5824 57.5611 40.864C57.4219 40.5864 57.1734 40.2936 56.3687 39.3927L56.3296 39.3487C56.0655 39.0531 55.8726 38.8373 55.7073 38.6018C55.3297 38.0643 55.0676 37.4606 54.9362 36.8257C54.8787 36.5476 54.8551 36.2649 54.8229 35.8775L54.818 35.8202C54.7194 34.6402 54.6783 34.2655 54.5707 33.9752C54.2928 33.2245 53.6739 32.634 52.8872 32.3688C52.583 32.2663 52.1903 32.227 50.9538 32.1328C50.9336 32.1313 50.9134 32.1297 50.8936 32.1282C50.4878 32.0974 50.1914 32.0749 49.9 32.02C49.2348 31.8946 48.602 31.6446 48.0387 31.2843C47.7919 31.1265 47.5658 30.9424 47.2558 30.6904C47.2407 30.6781 47.2255 30.6657 47.2099 30.6531C46.2658 29.8853 45.959 29.6481 45.668 29.5154Z" fill="white"/>
<path fill-rule="evenodd" clip-rule="evenodd" d="M50.0464 36.6861C50.5084 37.127 50.5084 37.8418 50.0464 38.2826L40.5819 47.3139C40.1199 47.7548 39.3708 47.7548 38.9088 47.3139C38.4468 46.8731 38.4468 46.1583 38.9088 45.7175L48.3733 36.6861C48.8353 36.2453 49.5844 36.2453 50.0464 36.6861Z" fill="white"/>
<path d="M49.9989 45.7631C49.9989 46.5944 49.2926 47.2683 48.4214 47.2683C47.5503 47.2683 46.844 46.5944 46.844 45.7631C46.844 44.9318 47.5503 44.2578 48.4214 44.2578C49.2926 44.2578 49.9989 44.9318 49.9989 45.7631Z" fill="white"/>
<path d="M42.1116 38.2369C42.1116 39.0682 41.4054 39.7421 40.5342 39.7421C39.663 39.7421 38.9568 39.0682 38.9568 38.2369C38.9568 37.4056 39.663 36.7317 40.5342 36.7317C41.4054 36.7317 42.1116 37.4056 42.1116 38.2369Z" fill="white"/>
</svg>
