<svg width="89" height="84" viewBox="0 0 89 84" fill="none" xmlns="http://www.w3.org/2000/svg">
<rect x="0.739014" width="88.0293" height="84" rx="10" fill="#28BF94" fill-opacity="0.13"/>
<rect x="14.3625" y="13" width="60.7821" height="58" rx="10" fill="#188753"/>
<path d="M52.5757 44.0129C49.372 44.0129 46.7749 46.4912 46.7749 49.5482C46.7749 52.6052 49.372 55.0835 52.5757 55.0835C55.7793 55.0835 58.3764 52.6052 58.3764 49.5482C58.3764 46.4912 55.7793 44.0129 52.5757 44.0129ZM52.5757 52.8692C50.6565 52.8692 49.0954 51.3793 49.0954 49.5482C49.0954 47.7168 50.6568 46.2272 52.5757 46.2272C54.4949 46.2272 56.0559 47.7171 56.0559 49.5482C56.0563 51.3793 54.4949 52.8692 52.5757 52.8692Z" fill="white"/>
<path d="M50.2859 48.7747H54.8611V50.3868H50.2859V48.7747ZM36.5798 40.9937H43.4424V43.143H36.5798V40.9937Z" fill="white"/>
<path d="M35.3692 37.6568H53.947V43.0082H56.2673V31.0778C56.2673 29.8864 55.2363 28.9167 53.9686 28.9167H53.1007C52.1743 28.9167 51.3543 29.4156 51.0107 30.1866C50.8296 30.5924 50.1276 30.5933 49.9464 30.1866C49.6019 29.415 48.7819 28.9167 47.8562 28.9167H47.2801C46.3538 28.9167 45.5337 29.4156 45.1901 30.1866C45.009 30.5924 44.307 30.5933 44.1258 30.1866C43.7813 29.415 42.9613 28.9167 42.0356 28.9167H41.4826C40.5563 28.9167 39.7363 29.4156 39.3927 30.1866C39.2116 30.5924 38.5095 30.5933 38.3284 30.1866C37.9839 29.415 37.1638 28.9167 36.2381 28.9167H35.3635C34.0959 28.9167 33.0642 29.8864 33.0642 31.0778V55.0834H45.7919V52.9027H35.3829L35.3692 37.6568ZM36.188 31.0295C36.6407 32.0454 37.6892 32.7019 38.8601 32.7019C40.0303 32.7019 41.0791 32.046 41.4823 31.0978L41.9854 31.0295C42.4381 32.0454 43.4866 32.7019 44.6575 32.7019C45.8278 32.7019 46.8766 32.046 47.2798 31.0978L47.806 31.0295C48.2587 32.0454 49.3072 32.7019 50.4781 32.7019C51.6484 32.7019 52.6971 32.046 53.1004 31.0978L53.9467 31.0781V35.476H35.367L35.3632 31.0978L36.188 31.0295Z" fill="white"/>
</svg>
