<svg width="89" height="84" viewBox="0 0 89 84" fill="none" xmlns="http://www.w3.org/2000/svg">
<rect x="0.954834" width="88.0293" height="84" rx="10" fill="#FF4C00" fill-opacity="0.13"/>
<rect x="14.5784" y="13" width="60.7821" height="58" rx="10" fill="#FF4C00"/>
<path d="M58.169 30.8047C58.1499 30.4382 57.8698 30.1263 57.4895 30.053C57.4568 30.047 57.4245 30.0425 57.3923 30.0397L46.4192 29.0041C46.1641 28.9798 45.9154 29.0656 45.7354 29.2373L32.801 41.5805C30.8609 43.4318 30.8609 44.561 32.801 46.4119L41.0089 54.2448C41.8785 55.0751 42.6417 55.6267 43.5406 55.6267C44.4396 55.6267 45.2028 55.0735 46.0707 54.2444L59.0072 41.9005C59.1872 41.7291 59.2768 41.4898 59.2517 41.248L58.169 30.8047ZM44.8708 53.0991C44.463 53.4883 43.881 54.0063 43.5406 54.0063C43.1998 54.0063 42.6175 53.4883 42.2092 53.0991L34.0014 45.2661C32.7327 44.0559 32.7327 43.9365 34.0014 42.7263L46.6531 30.6537L56.5438 31.5876L57.5234 41.026L44.8708 53.0991Z" fill="white"/>
<path d="M40.2258 38.8689L36.3676 42.5501C35.3935 43.4796 35.1261 44.1098 36.2416 45.1741C36.3243 45.2531 36.433 45.2928 36.5417 45.2928C36.6503 45.2928 36.759 45.2531 36.8417 45.1741C37.0077 45.0158 37.0077 44.7602 36.8417 44.6014C36.1766 43.9668 36.1847 43.8704 36.9678 43.1227L40.826 39.4416C40.9919 39.2832 40.9919 39.0273 40.826 38.8689C40.66 38.7105 40.3918 38.7105 40.2258 38.8689Z" fill="white"/>
<path d="M41.4337 37.7159L41.0886 38.0455C40.9231 38.2039 40.9231 38.4603 41.0895 38.6182C41.1723 38.6968 41.2805 38.7365 41.3891 38.7365C41.4978 38.7365 41.6065 38.6972 41.6896 38.6174L42.0347 38.2877C42.2003 38.1294 42.2003 37.873 42.0339 37.715C41.8679 37.5575 41.5997 37.5567 41.4337 37.7159Z" fill="white"/>
<path d="M51.4996 32.9419C49.5595 32.9419 47.9797 34.4485 47.9797 36.3003C47.9797 38.152 49.5595 39.6586 51.4996 39.6586C53.4406 39.6586 55.0187 38.152 55.0187 36.3003C55.0187 34.4485 53.4402 32.9419 51.4996 32.9419ZM51.4996 38.0386C50.495 38.0386 49.6775 37.2585 49.6775 36.3003C49.6775 35.342 50.495 34.5619 51.4996 34.5619C52.5051 34.5619 53.3209 35.342 53.3209 36.3003C53.3209 37.2585 52.5043 38.0386 51.4996 38.0386Z" fill="white"/>
</svg>
